<svg width="33" height="33" viewBox="0 0 33 33" fill="none" xmlns="http://www.w3.org/2000/svg">
<g clip-path="url(#clip0_103_2)">
<path d="M29.5596 16.4949L32.5235 13.5942C33.407 12.7578 32.995 11.2713 31.8362 10.9942L27.7982 9.96358L28.9365 5.96652C29.2582 4.8168 28.1741 3.73238 27.0247 4.05413L23.029 5.19282L21.9988 1.15348C21.7262 0.0127259 20.2231 -0.404479 19.3997 0.465896L16.5 3.45278L13.6003 0.46596C12.7863 -0.394553 11.277 -0.000293708 11.0012 1.15355L9.97103 5.19289L5.97525 4.05419C4.8256 3.73232 3.74189 4.81713 4.06351 5.96658L5.20182 9.96364L1.16383 10.9942C0.0044451 11.2715 -0.406701 12.7581 0.476436 13.5942L3.44031 16.4949L0.476436 19.3955C-0.407088 20.2319 0.00489638 21.7183 1.16376 21.9955L5.20175 23.0261L4.06345 27.0232C3.74176 28.1729 4.82586 29.2573 5.97519 28.9355L9.9709 27.7969L11.0011 31.8362C11.2872 33.0334 12.7862 33.3842 13.6002 32.5238L16.5 29.5589L19.3997 32.5238C20.2053 33.3931 21.7192 33.0063 21.9988 31.8362L23.029 27.7969L27.0247 28.9355C28.1743 29.2574 29.258 28.1726 28.9364 27.0232L27.7981 23.0261L31.8361 21.9955C32.9954 21.7182 33.4066 20.2316 32.5234 19.3955L29.5596 16.4949V16.4949Z" fill="#F2C94C"/>
<path d="M23.0233 15.3489H25.3256V16.8837H23.0233V15.3489ZM8.44189 15.3489H10.7442V16.8837H8.44189V15.3489ZM17.6512 7.67444V9.97676H16.1163V7.67444H17.6512ZM11.4503 9.59304L13.0849 11.2354L11.9952 12.3175L10.3605 10.6905L11.4503 9.59304ZM20.6826 11.2277L22.3096 9.59304L23.407 10.6905L21.7724 12.3175L20.6826 11.2277ZM16.8838 11.5116C18.105 11.5116 19.2762 11.9968 20.1397 12.8603C21.0033 13.7239 21.4884 14.8951 21.4884 16.1163C21.4884 17.82 20.5598 19.3089 19.1861 20.107V21.4884C19.1861 21.6919 19.1052 21.8871 18.9613 22.0311C18.8174 22.175 18.6222 22.2558 18.4186 22.2558H15.3489C15.1453 22.2558 14.9501 22.175 14.8062 22.0311C14.6623 21.8871 14.5814 21.6919 14.5814 21.4884V20.107C13.2077 19.3089 12.2791 17.82 12.2791 16.1163C12.2791 14.8951 12.7642 13.7239 13.6278 12.8603C14.4913 11.9968 15.6625 11.5116 16.8838 11.5116M18.4186 23.0233V23.7907C18.4186 23.9943 18.3378 24.1895 18.1939 24.3334C18.0499 24.4773 17.8547 24.5582 17.6512 24.5582H16.1163C15.9128 24.5582 15.7176 24.4773 15.5736 24.3334C15.4297 24.1895 15.3489 23.9943 15.3489 23.7907V23.0233H18.4186ZM16.1163 20.7209H17.6512V19.0863C18.9789 18.7486 19.9535 17.5437 19.9535 16.1163C19.9535 15.3021 19.6301 14.5213 19.0544 13.9456C18.4787 13.37 17.6979 13.0465 16.8838 13.0465C16.0696 13.0465 15.2888 13.37 14.7131 13.9456C14.1374 14.5213 13.814 15.3021 13.814 16.1163C13.814 17.5437 14.7886 18.7486 16.1163 19.0863V20.7209Z" fill="white"/>
</g>
<defs>
<clipPath id="clip0_103_2">
<rect width="33" height="33" fill="white"/>
</clipPath>
</defs>
</svg>
