<svg width="1950" height="565" viewBox="0 0 1950 565" fill="none" xmlns="http://www.w3.org/2000/svg">
<path d="M535.24 231.8C549.107 236.28 559.773 243.32 567.24 252.92C574.92 262.52 578.76 274.253 578.76 288.12C578.76 310.52 571.72 327.267 557.64 338.36C543.773 349.453 520.413 355 487.56 355H394.76V112.44H487.56C517.213 112.44 538.227 117.88 550.6 128.76C562.973 139.64 569.16 155.853 569.16 177.4C569.16 190.413 566.387 201.507 560.84 210.68C555.507 219.64 546.973 226.68 535.24 231.8ZM439.24 215.48H487.56C511.88 215.48 524.04 204.067 524.04 181.24C524.04 169.507 521.267 161.08 515.72 155.96C510.173 150.84 500.787 148.28 487.56 148.28H439.24V215.48ZM533.64 284.92C533.64 273.187 529.8 264.653 522.12 259.32C514.44 253.987 502.92 251.32 487.56 251.32H439.24V319.16H487.56C504.413 319.16 516.253 316.493 523.08 311.16C530.12 305.613 533.64 296.867 533.64 284.92ZM623.1 96.76H665.98V145.08H623.1V96.76ZM623.1 176.12H665.98V355H623.1V176.12ZM767.723 359.16C750.229 359.16 737.429 355.533 729.323 348.28C721.216 340.813 717.163 329.4 717.163 314.04V84.28H760.043V299.96C760.043 307.64 761.323 312.973 763.883 315.96C766.443 318.947 771.029 320.44 777.643 320.44C784.256 320.44 790.123 319.8 795.243 318.52V355.64C785.216 357.987 776.043 359.16 767.723 359.16ZM879.285 359.16C861.792 359.16 848.992 355.533 840.885 348.28C832.778 340.813 828.725 329.4 828.725 314.04V84.28H871.605V299.96C871.605 307.64 872.885 312.973 875.445 315.96C878.005 318.947 882.592 320.44 889.205 320.44C895.818 320.44 901.685 319.8 906.805 318.52V355.64C896.778 357.987 887.605 359.16 879.285 359.16ZM1101.89 176.12V355H1059.01V338.36C1042.79 352.013 1025.41 358.84 1006.85 358.84C983.808 358.84 966.634 352.973 955.328 341.24C944.234 329.293 938.688 310.093 938.688 283.64V176.12H981.568V283.64C981.568 296.44 984.021 305.72 988.928 311.48C994.048 317.24 1002.79 320.12 1015.17 320.12C1029.67 320.12 1044.29 313.933 1059.01 301.56V176.12H1101.89ZM1204.94 219V299.96C1204.94 307.64 1206.22 312.973 1208.78 315.96C1211.34 318.947 1216.03 320.44 1222.86 320.44C1229.69 320.44 1236.19 319.587 1242.38 317.88V355.32C1230.22 357.88 1220.19 359.16 1212.3 359.16C1194.59 359.16 1181.79 355.427 1173.9 347.96C1166.01 340.493 1162.06 328.973 1162.06 313.4V219H1138.38V180.28H1162.06V119.48H1204.94V180.28H1245.9V219H1204.94ZM1283.1 96.76H1325.98V145.08H1283.1V96.76ZM1283.1 176.12H1325.98V355H1283.1V176.12ZM1458.44 360.44C1438.6 360.44 1421.75 356.28 1407.88 347.96C1394.02 339.64 1383.56 328.333 1376.52 314.04C1369.7 299.533 1366.28 283.32 1366.28 265.4C1366.28 247.693 1369.7 231.693 1376.52 217.4C1383.56 203.107 1394.02 191.8 1407.88 183.48C1421.75 175.16 1438.6 171 1458.44 171C1478.07 171 1494.71 175.16 1508.36 183.48C1522.23 191.8 1532.58 203.107 1539.4 217.4C1546.44 231.693 1549.96 247.693 1549.96 265.4C1549.96 283.32 1546.44 299.533 1539.4 314.04C1532.58 328.333 1522.23 339.64 1508.36 347.96C1494.71 356.28 1478.07 360.44 1458.44 360.44ZM1458.44 323C1473.59 323 1485.22 317.88 1493.32 307.64C1501.43 297.187 1505.48 283.107 1505.48 265.4C1505.48 247.693 1501.43 233.72 1493.32 223.48C1485.22 213.24 1473.59 208.12 1458.44 208.12C1443.08 208.12 1431.24 213.24 1422.92 223.48C1414.82 233.72 1410.76 247.693 1410.76 265.4C1410.76 283.107 1414.82 297.187 1422.92 307.64C1431.24 317.88 1443.08 323 1458.44 323ZM1685.33 172.28C1708.37 172.28 1725.43 178.147 1736.53 189.88C1747.83 201.613 1753.49 220.707 1753.49 247.16V355H1710.61V247.16C1710.61 234.573 1708.05 225.4 1702.93 219.64C1698.02 213.667 1689.38 210.68 1677.01 210.68C1662.5 210.68 1647.89 216.973 1633.17 229.56V355H1590.29V176.12H1633.17V192.76C1649.38 179.107 1666.77 172.28 1685.33 172.28ZM1864.22 360.44C1850.35 360.44 1837.98 359.267 1827.1 356.92C1816.22 354.573 1804.91 350.627 1793.18 345.08V305.72C1804.49 312.12 1815.9 316.813 1827.42 319.8C1839.15 322.573 1851.42 323.96 1864.22 323.96C1882.35 323.96 1891.42 317.453 1891.42 304.44C1891.42 298.893 1889.82 294.84 1886.62 292.28C1883.63 289.507 1878.83 287.267 1872.22 285.56L1845.98 279.8C1829.55 276.173 1817.07 270.307 1808.54 262.2C1800.22 253.88 1796.06 242.04 1796.06 226.68C1796.06 189.56 1819.21 171 1865.5 171C1885.77 171 1906.14 174.84 1926.62 182.52V220.28C1918.73 216.44 1909.66 213.347 1899.42 211C1889.18 208.653 1878.51 207.48 1867.42 207.48C1848.86 207.48 1839.58 213.027 1839.58 224.12C1839.58 229.24 1841.07 232.973 1844.06 235.32C1847.26 237.667 1851.95 239.587 1858.14 241.08L1884.06 246.84C1901.34 250.893 1914.14 256.973 1922.46 265.08C1930.78 273.187 1934.94 285.667 1934.94 302.52C1934.94 321.507 1928.54 335.907 1915.74 345.72C1902.94 355.533 1885.77 360.44 1864.22 360.44Z" fill="white"/>
<g clip-path="url(#clip0_101_4)">
<path d="M274.994 230.452L302.567 203.467C310.787 195.686 306.954 181.858 296.173 179.279L258.607 169.691L269.197 132.507C272.19 121.811 262.104 111.722 251.412 114.716L214.24 125.309L204.656 87.7309C202.119 77.1184 188.136 73.2371 180.476 81.3342L153.5 109.121L126.524 81.3348C118.951 73.3295 104.91 76.9973 102.345 87.7315L92.7608 125.31L55.588 114.716C44.8927 111.722 34.8109 121.814 37.803 132.507L48.3927 169.692L10.8271 179.28C0.0413529 181.859 -3.78355 195.689 4.43229 203.467L32.0053 230.452L4.43229 257.437C-3.78715 265.218 0.0455512 279.046 10.8265 281.625L48.3921 291.213L37.8024 328.397C34.8097 339.093 44.8951 349.182 55.5874 346.188L92.7596 335.595L102.344 373.173C105.005 384.311 118.95 387.575 126.523 379.57L153.5 351.987L180.476 379.57C187.971 387.657 202.054 384.058 204.655 373.173L214.239 335.595L251.411 346.188C262.106 349.183 272.188 339.091 269.196 328.397L258.607 291.213L296.172 281.625C306.957 279.045 310.782 265.215 302.566 257.437L274.994 230.452V230.452Z" fill="#F2C94C"/>
<path d="M214.186 219.791H235.605V234.07H214.186V219.791ZM78.5352 219.791H99.9538V234.07H78.5352V219.791ZM164.21 148.395V169.814H149.931V148.395H164.21ZM106.522 166.244L121.729 181.523L111.591 191.59L96.384 176.454L106.522 166.244ZM192.411 181.451L207.547 166.244L217.756 176.454L202.549 191.59L192.411 181.451ZM157.07 184.093C168.431 184.093 179.327 188.606 187.361 196.64C195.394 204.673 199.907 215.569 199.907 226.93C199.907 242.78 191.268 256.631 178.489 264.056V276.907C178.489 278.801 177.736 280.617 176.398 281.955C175.059 283.294 173.243 284.047 171.349 284.047H142.791C140.897 284.047 139.081 283.294 137.743 281.955C136.404 280.617 135.651 278.801 135.651 276.907V264.056C122.872 256.631 114.233 242.78 114.233 226.93C114.233 215.569 118.746 204.673 126.78 196.64C134.813 188.606 145.709 184.093 157.07 184.093M171.349 291.186V298.326C171.349 300.219 170.597 302.035 169.258 303.374C167.919 304.713 166.103 305.465 164.21 305.465H149.931C148.037 305.465 146.221 304.713 144.882 303.374C143.543 302.035 142.791 300.219 142.791 298.326V291.186H171.349ZM149.931 269.767H164.21V254.56C176.561 251.419 185.628 240.21 185.628 226.93C185.628 219.356 182.619 212.092 177.264 206.737C171.908 201.381 164.644 198.372 157.07 198.372C149.496 198.372 142.232 201.381 136.876 206.737C131.521 212.092 128.512 219.356 128.512 226.93C128.512 240.21 137.579 251.419 149.931 254.56V269.767Z" fill="white"/>
</g>
<defs>
<clipPath id="clip0_101_4">
<rect width="307" height="307" fill="white" transform="translate(0 77)"/>
</clipPath>
</defs>
</svg>
