<svg width="112" height="112" viewBox="0 0 112 112" fill="none" xmlns="http://www.w3.org/2000/svg">
<g clip-path="url(#clip0_103_2)">
<path d="M100.324 55.9826L110.383 46.1378C113.381 43.299 111.983 38.2542 108.05 37.3136L94.3454 33.8158L98.2087 20.25C99.3005 16.3479 95.6211 12.6675 91.7204 13.7595L78.1592 17.6241L74.6627 3.91485C73.7374 0.043191 68.6361 -1.37278 65.8416 1.58122L56 11.7185L46.1587 1.58144C43.3958 -1.33909 38.2734 -0.000996828 37.3376 3.91507L33.8411 17.6243L20.2797 13.7597C16.3778 12.6673 12.6997 16.349 13.7913 20.2502L17.6547 33.816L3.94996 37.3138C0.0150864 38.2547 -1.38032 43.3003 1.61699 46.1378L11.6762 55.9826L1.61699 65.8272C-1.38163 68.6659 0.016618 73.7108 3.94974 74.6514L17.6544 78.1492L13.7911 91.715C12.6993 95.617 16.3787 99.2975 20.2794 98.2055L33.8406 94.3409L37.3371 108.05C38.3082 112.113 43.3956 113.304 46.1582 110.384L56 100.321L65.8414 110.384C68.5757 113.334 73.7135 112.021 74.6624 108.05L78.1589 94.3409L91.7201 98.2055C95.6218 99.2979 99.3 95.6162 98.2085 91.715L94.3451 78.1492L108.05 74.6514C111.984 73.7103 113.38 68.6648 110.383 65.8272L100.324 55.9826V55.9826Z" fill="#F2C94C"/>
<path d="M78.1393 52.093H85.9532V57.3023H78.1393V52.093ZM28.6509 52.093H36.4648V57.3023H28.6509V52.093ZM59.9067 26.0465V33.8605H54.6974V26.0465H59.9067ZM38.8611 32.5581L44.409 38.1321L40.7104 41.8046L35.1625 36.2828L38.8611 32.5581ZM70.1951 38.106L75.7169 32.5581L79.4416 36.2828L73.8937 41.8046L70.1951 38.106ZM57.302 39.0698C61.4468 39.0698 65.4218 40.7163 68.3526 43.6471C71.2834 46.5779 72.9299 50.5529 72.9299 54.6977C72.9299 60.48 69.7783 65.533 65.116 68.2419V72.9302C65.116 73.621 64.8416 74.2835 64.3531 74.772C63.8646 75.2605 63.2021 75.5349 62.5113 75.5349H52.0927C51.4019 75.5349 50.7394 75.2605 50.251 74.772C49.7625 74.2835 49.4881 73.621 49.4881 72.9302V68.2419C44.8258 65.533 41.6741 60.48 41.6741 54.6977C41.6741 50.5529 43.3206 46.5779 46.2514 43.6471C49.1822 40.7163 53.1573 39.0698 57.302 39.0698M62.5113 78.1395V80.7442C62.5113 81.435 62.2369 82.0975 61.7485 82.586C61.26 83.0744 60.5975 83.3488 59.9067 83.3488H54.6974C54.0066 83.3488 53.3441 83.0744 52.8556 82.586C52.3672 82.0975 52.0927 81.435 52.0927 80.7442V78.1395H62.5113ZM54.6974 70.3256H59.9067V64.7777C64.4127 63.6316 67.7206 59.5423 67.7206 54.6977C67.7206 51.9345 66.623 49.2845 64.6691 47.3306C62.7152 45.3767 60.0652 44.2791 57.302 44.2791C54.5389 44.2791 51.8888 45.3767 49.935 47.3306C47.9811 49.2845 46.8834 51.9345 46.8834 54.6977C46.8834 59.5423 50.1913 63.6316 54.6974 64.7777V70.3256Z" fill="white"/>
</g>
<defs>
<clipPath id="clip0_103_2">
<rect width="112" height="112" fill="white"/>
</clipPath>
</defs>
</svg>
